{
	"asset":{
		"generator":"Khronos glTF Blender I/O v3.6.27",
		"version":"2.0"
	},
	"extensionsUsed":[
		"KHR_materials_transmission",
		"KHR_materials_specular",
		"KHR_materials_ior"
	],
	"scene":0,
	"scenes":[
		{
			"name":"Scene",
			"nodes":[
				0,
				1,
				2
			]
		}
	],
	"nodes":[
		{
			"mesh":0,
			"name":"Plane",
			"scale":[
				22.245389938354492,
				18.69406509399414,
				18.69406509399414
			],
			"translation":[
				0.03228265047073364,
				0.7073574066162109,
				-0.08769845962524414
			]
		},
		{
			"mesh":1,
			"name":"Cylinder.001",
			"rotation":[
				0.4675372540950775,
				0.4015427529811859,
				0.5877172350883484,
				0.524176299571991
			],
			"scale":[
				1,
				0.3509864807128906,
				1
			],
			"translation":[
				-6.414606094360352,
				1.8088514804840088,
				-4.008122444152832
			]
		},
		{
			"mesh":2,
			"name":"Cylinder.003",
			"rotation":[
				-0.6266434788703918,
				0.3990671634674072,
				-0.4143024981021881,
				0.5257535576820374
			],
			"scale":[
				1,
				0.35098645091056824,
				1
			],
			"translation":[
				-8.931011199951172,
				2.075801134109497,
				-1.934847354888916
			]
		}
	],
	"materials":[
		{
			"doubleSided":true,
			"name":"bulu",
			"pbrMetallicRoughness":{
				"metallicFactor":0,
				"roughnessFactor":0.5340908765792847
			}
		},
		{
			"doubleSided":true,
			"name":"Body",
			"pbrMetallicRoughness":{
				"baseColorTexture":{
					"index":0
				},
				"metallicFactor":0.5204540491104126,
				"roughnessFactor":0.4000000059604645
			}
		},
		{
			"doubleSided":true,
			"extensions":{
				"KHR_materials_transmission":{
					"transmissionFactor":0.3659090995788574
				},
				"KHR_materials_specular":{
					"specularColorFactor":[
						0.8204234003808937,
						0.8204234003808937,
						0.8204234003808937
					]
				},
				"KHR_materials_ior":{
					"ior":1.4500000476837158
				}
			},
			"name":"Tutup",
			"pbrMetallicRoughness":{
				"metallicFactor":0.8500000238418579,
				"roughnessFactor":0.44999998807907104
			}
		}
	],
	"meshes":[
		{
			"name":"Plane",
			"primitives":[
				{
					"attributes":{
						"POSITION":0,
						"NORMAL":1,
						"TEXCOORD_0":2
					},
					"indices":3,
					"material":0
				}
			]
		},
		{
			"name":"Cylinder.001",
			"primitives":[
				{
					"attributes":{
						"POSITION":4,
						"NORMAL":5,
						"TEXCOORD_0":6
					},
					"indices":7,
					"material":1
				},
				{
					"attributes":{
						"POSITION":8,
						"NORMAL":9,
						"TEXCOORD_0":10
					},
					"indices":11,
					"material":2
				}
			]
		},
		{
			"name":"Cylinder.003",
			"primitives":[
				{
					"attributes":{
						"POSITION":12,
						"NORMAL":13,
						"TEXCOORD_0":14
					},
					"indices":7,
					"material":1
				},
				{
					"attributes":{
						"POSITION":15,
						"NORMAL":16,
						"TEXCOORD_0":17
					},
					"indices":11,
					"material":2
				}
			]
		}
	],
	"textures":[
		{
			"sampler":0,
			"source":0
		}
	],
	"images":[
		{
			"mimeType":"image/png",
			"name":"Your paragraph text (2160 x 1080 px) (1080 x 1080 px)",
			"uri":"Your%20paragraph%20text%202160%20x%201080%20px%201080%20x%201080%20px.png"
		}
	],
	"accessors":[
		{
			"bufferView":0,
			"componentType":5126,
			"count":39906,
			"max":[
				1.0025192499160767,
				0.044042352586984634,
				0.9939512014389038
			],
			"min":[
				-0.9684041738510132,
				-0.047276146709918976,
				-0.9864097237586975
			],
			"type":"VEC3"
		},
		{
			"bufferView":1,
			"componentType":5126,
			"count":39906,
			"type":"VEC3"
		},
		{
			"bufferView":2,
			"componentType":5126,
			"count":39906,
			"type":"VEC2"
		},
		{
			"bufferView":3,
			"componentType":5123,
			"count":61206,
			"type":"SCALAR"
		},
		{
			"bufferView":4,
			"componentType":5126,
			"count":476,
			"max":[
				1.0319209098815918,
				16.206619262695312,
				1.0954631567001343
			],
			"min":[
				-1.1590054035186768,
				-3.005218744277954,
				-1.0954631567001343
			],
			"type":"VEC3"
		},
		{
			"bufferView":5,
			"componentType":5126,
			"count":476,
			"type":"VEC3"
		},
		{
			"bufferView":6,
			"componentType":5126,
			"count":476,
			"type":"VEC2"
		},
		{
			"bufferView":7,
			"componentType":5123,
			"count":2496,
			"type":"SCALAR"
		},
		{
			"bufferView":8,
			"componentType":5126,
			"count":757,
			"max":[
				0.9364578127861023,
				-3.005218505859375,
				1
			],
			"min":[
				-1.0635422468185425,
				-5.057772636413574,
				-1
			],
			"type":"VEC3"
		},
		{
			"bufferView":9,
			"componentType":5126,
			"count":757,
			"type":"VEC3"
		},
		{
			"bufferView":10,
			"componentType":5126,
			"count":757,
			"type":"VEC2"
		},
		{
			"bufferView":11,
			"componentType":5123,
			"count":4050,
			"type":"SCALAR"
		},
		{
			"bufferView":12,
			"componentType":5126,
			"count":476,
			"max":[
				1.0934782028198242,
				11.680978775024414,
				1.0954627990722656
			],
			"min":[
				-1.0974481105804443,
				-7.530859470367432,
				-1.0954639911651611
			],
			"type":"VEC3"
		},
		{
			"bufferView":13,
			"componentType":5126,
			"count":476,
			"type":"VEC3"
		},
		{
			"bufferView":14,
			"componentType":5126,
			"count":476,
			"type":"VEC2"
		},
		{
			"bufferView":15,
			"componentType":5126,
			"count":757,
			"max":[
				0.9980151653289795,
				-7.530858993530273,
				0.999998927116394
			],
			"min":[
				-1.0019848346710205,
				-9.583413124084473,
				-1.000001072883606
			],
			"type":"VEC3"
		},
		{
			"bufferView":16,
			"componentType":5126,
			"count":757,
			"type":"VEC3"
		},
		{
			"bufferView":17,
			"componentType":5126,
			"count":757,
			"type":"VEC2"
		}
	],
	"bufferViews":[
		{
			"buffer":0,
			"byteLength":478872,
			"byteOffset":0,
			"target":34962
		},
		{
			"buffer":0,
			"byteLength":478872,
			"byteOffset":478872,
			"target":34962
		},
		{
			"buffer":0,
			"byteLength":319248,
			"byteOffset":957744,
			"target":34962
		},
		{
			"buffer":0,
			"byteLength":122412,
			"byteOffset":1276992,
			"target":34963
		},
		{
			"buffer":0,
			"byteLength":5712,
			"byteOffset":1399404,
			"target":34962
		},
		{
			"buffer":0,
			"byteLength":5712,
			"byteOffset":1405116,
			"target":34962
		},
		{
			"buffer":0,
			"byteLength":3808,
			"byteOffset":1410828,
			"target":34962
		},
		{
			"buffer":0,
			"byteLength":4992,
			"byteOffset":1414636,
			"target":34963
		},
		{
			"buffer":0,
			"byteLength":9084,
			"byteOffset":1419628,
			"target":34962
		},
		{
			"buffer":0,
			"byteLength":9084,
			"byteOffset":1428712,
			"target":34962
		},
		{
			"buffer":0,
			"byteLength":6056,
			"byteOffset":1437796,
			"target":34962
		},
		{
			"buffer":0,
			"byteLength":8100,
			"byteOffset":1443852,
			"target":34963
		},
		{
			"buffer":0,
			"byteLength":5712,
			"byteOffset":1451952,
			"target":34962
		},
		{
			"buffer":0,
			"byteLength":5712,
			"byteOffset":1457664,
			"target":34962
		},
		{
			"buffer":0,
			"byteLength":3808,
			"byteOffset":1463376,
			"target":34962
		},
		{
			"buffer":0,
			"byteLength":9084,
			"byteOffset":1467184,
			"target":34962
		},
		{
			"buffer":0,
			"byteLength":9084,
			"byteOffset":1476268,
			"target":34962
		},
		{
			"buffer":0,
			"byteLength":6056,
			"byteOffset":1485352,
			"target":34962
		}
	],
	"samplers":[
		{
			"magFilter":9729,
			"minFilter":9987
		}
	],
	"buffers":[
		{
			"byteLength":1491408,
			"uri":"Moist.bin"
		}
	]
}
